<?xml version="1.0" standalone="no"?>
<!DOCTYPE svg PUBLIC "-//W3C//DTD SVG 20010904//EN"
 "http://www.w3.org/TR/2001/REC-SVG-20010904/DTD/svg10.dtd">
<svg version="1.0" xmlns="http://www.w3.org/2000/svg"
 width="512.000000pt" height="512.000000pt" viewBox="0 0 512.000000 512.000000"
 preserveAspectRatio="xMidYMid meet">

<g transform="translate(0.000000,512.000000) scale(0.100000,-0.100000)"
fill="#000000" stroke="none">
<path d="M253 5105 c-204 -55 -309 -283 -217 -472 73 -151 253 -229 405 -175
l57 20 136 -137 137 -137 -3 -120 c-4 -103 -8 -127 -32 -183 -31 -72 -44 -181
-28 -248 l10 -42 -42 -6 c-143 -22 -286 -127 -353 -258 -49 -98 -53 -144 -53
-667 0 -526 3 -557 56 -662 40 -78 126 -162 207 -203 38 -19 76 -35 85 -35 16
0 15 -6 -12 -100 -56 -192 -6 -428 124 -584 38 -46 40 -52 40 -114 l0 -67
-136 -136 -136 -137 -57 20 c-193 69 -413 -74 -437 -283 -30 -265 253 -460
491 -338 149 77 224 271 161 419 l-14 35 157 160 c149 151 158 163 165 208 4
26 8 47 9 47 1 0 26 -9 54 -20 57 -21 200 -41 248 -33 28 4 32 0 65 -64 46
-90 153 -197 240 -240 239 -119 526 -69 695 119 56 63 90 119 124 207 26 66
26 66 29 444 l3 377 330 0 c267 0 335 3 357 14 40 22 279 267 292 299 14 39
14 1055 0 1094 -13 32 -252 277 -292 299 -18 9 -60 14 -128 14 l-101 0 3 368
3 367 32 66 c138 281 538 281 676 0 30 -61 32 -73 32 -167 0 -56 -3 -105 -6
-109 -4 -3 -35 4 -70 16 -148 50 -306 -17 -381 -161 -33 -65 -33 -205 0 -270
29 -56 86 -116 132 -140 169 -87 374 -8 441 170 17 45 20 69 16 134 -5 74 -3
83 23 130 16 28 34 75 41 104 13 63 28 72 123 72 146 0 258 -114 260 -265 1
-79 -38 -164 -86 -187 -91 -43 -192 -169 -222 -276 -14 -50 -21 -62 -46 -72
-42 -17 -102 -78 -125 -125 -27 -57 -32 -164 -10 -222 40 -105 145 -176 260
-175 186 0 319 184 260 362 -17 51 -82 130 -129 156 -46 25 27 133 123 181
143 73 303 21 376 -122 l30 -59 0 -511 0 -511 -30 -59 c-35 -68 -103 -126
-171 -145 -55 -16 -148 -9 -196 14 -34 16 -37 21 -30 45 4 14 7 60 7 101 0 59
-6 86 -25 125 -34 70 -89 126 -157 161 -51 25 -69 29 -143 29 -73 0 -93 -4
-141 -28 -153 -75 -227 -256 -169 -412 31 -82 113 -164 195 -195 76 -28 174
-24 253 10 l53 23 47 -25 c26 -14 64 -31 84 -37 32 -11 42 -22 67 -74 135
-277 -46 -609 -352 -646 -32 -4 -86 -4 -120 1 -68 9 -185 61 -230 103 l-29 25
24 48 c46 94 21 237 -55 310 -70 66 -177 96 -264 73 -61 -17 -134 -70 -165
-121 -112 -183 14 -419 225 -420 57 0 61 -2 119 -54 33 -30 84 -67 114 -83 30
-15 54 -32 54 -38 0 -41 -102 -145 -179 -182 -71 -35 -203 -44 -279 -19 -143
48 -262 200 -262 335 0 44 -24 97 -50 111 -12 7 -39 12 -58 12 -28 0 -43 -7
-66 -33 -28 -32 -29 -34 -23 -114 17 -241 202 -457 441 -514 68 -17 210 -15
280 4 147 39 285 146 361 281 l39 70 86 2 c74 1 172 21 232 46 14 6 18 -1 24
-40 7 -46 16 -57 165 -209 l157 -160 -14 -35 c-63 -148 12 -342 161 -419 238
-122 521 73 491 338 -24 209 -244 352 -437 283 l-57 -20 -136 137 -136 136 0
66 c0 62 3 70 38 115 143 181 185 409 114 619 -18 52 -18 57 -3 62 162 53 285
178 327 330 17 62 19 111 19 593 0 515 -1 526 -22 582 -27 70 -78 150 -130
200 -51 49 -158 104 -232 119 -59 11 -61 12 -54 38 4 14 7 62 6 106 -1 63 -7
95 -29 150 -24 60 -28 88 -31 189 l-4 120 137 137 136 137 57 -20 c193 -69
413 74 437 283 30 265 -253 460 -491 338 -149 -77 -224 -271 -161 -419 l14
-35 -157 -160 c-166 -169 -171 -176 -171 -271 l0 -32 -62 20 c-56 17 -172 25
-241 15 -15 -1 -24 12 -41 58 -63 172 -220 315 -395 360 -91 23 -229 21 -311
-4 -194 -61 -360 -239 -399 -429 -7 -33 -11 -189 -11 -407 l0 -354 -345 -3
-345 -3 -147 -148 -148 -147 0 -560 0 -560 135 -136 c74 -74 147 -142 162
-150 18 -9 60 -14 128 -14 l101 0 -3 -362 -3 -363 -31 -65 c-56 -119 -167
-202 -289 -218 -153 -20 -299 46 -373 167 l-31 49 64 38 c36 20 89 59 119 86
52 46 57 48 113 48 155 0 271 127 261 287 -5 78 -27 131 -75 179 -111 111
-277 111 -389 0 -86 -87 -108 -210 -55 -313 l21 -41 -36 -31 c-131 -115 -337
-136 -504 -51 -67 34 -156 129 -191 204 -41 87 -56 189 -40 274 15 83 63 178
93 187 13 4 51 21 86 38 l63 30 51 -24 c70 -33 201 -34 269 -3 138 64 220 222
189 367 -54 264 -379 355 -562 159 -74 -79 -108 -209 -79 -309 9 -31 8 -32
-39 -52 -131 -57 -289 2 -358 133 l-27 51 0 520 0 520 25 49 c49 96 147 156
257 156 87 0 180 -49 227 -120 30 -46 43 -90 27 -90 -20 0 -102 -83 -123 -124
-29 -56 -35 -150 -14 -214 82 -245 440 -245 522 0 21 64 15 158 -14 214 -23
44 -83 104 -131 129 -20 10 -31 23 -31 37 0 34 -66 160 -110 211 -23 25 -68
63 -100 83 -78 48 -105 99 -105 199 0 153 111 265 262 265 76 0 113 -13 113
-39 0 -25 38 -128 59 -160 11 -17 15 -51 16 -125 0 -86 3 -108 23 -146 128
-245 476 -229 572 27 91 243 -144 486 -389 404 -35 -12 -66 -20 -68 -17 -3 3
-9 25 -14 48 -10 57 6 172 33 228 28 56 97 132 152 164 126 74 300 62 419 -29
84 -64 128 -153 152 -309 16 -98 138 -118 184 -29 15 30 14 96 -4 171 -48 202
-216 376 -415 427 -84 22 -219 22 -296 0 -190 -55 -347 -205 -399 -380 l-12
-40 -104 3 c-84 3 -115 -1 -161 -17 l-58 -20 0 32 c0 96 -4 103 -171 272
l-157 160 14 35 c50 117 12 275 -87 366 -50 45 -82 62 -146 79 -69 18 -102 18
-170 0z m162 -209 c84 -55 82 -176 -4 -233 -91 -61 -219 16 -208 126 11 105
126 163 212 107z m4444 -3 c33 -24 61 -79 61 -118 0 -66 -72 -135 -141 -135
-76 0 -145 78 -135 154 12 104 133 159 215 99z m-3154 -1127 c37 -16 65 -59
65 -101 0 -74 -76 -128 -146 -105 -44 15 -74 58 -74 107 0 47 22 80 64 99 40
17 49 17 91 0z m1800 0 c37 -16 65 -59 65 -101 0 -74 -76 -128 -146 -105 -44
15 -74 58 -74 107 0 47 22 80 64 99 40 17 49 17 91 0z m-378 -638 l93 -93 0
-475 0 -475 -92 -92 -93 -93 -475 0 -475 0 -92 92 -93 93 0 475 0 475 92 92
93 93 475 0 475 0 92 -92z m-1942 -123 c62 -61 -1 -154 -82 -120 -32 14 -43
32 -43 71 0 33 42 74 75 74 14 0 37 -11 50 -25z m2850 0 c43 -42 28 -103 -28
-124 -51 -20 -97 14 -97 70 0 70 77 103 125 54z m-2756 -773 c37 -20 71 -73
71 -110 0 -65 -65 -132 -129 -132 -69 0 -131 59 -131 125 0 103 100 165 189
117z m2685 -1 c65 -43 84 -115 45 -178 -68 -109 -239 -63 -239 65 0 99 114
165 194 113z m-2130 -822 c53 -42 23 -129 -46 -129 -69 0 -102 77 -53 125 30
30 64 32 99 4z m1531 15 c23 -9 47 -61 39 -87 -12 -39 -35 -57 -74 -57 -55 0
-88 46 -69 97 17 45 59 64 104 47z m-2954 -967 c46 -30 71 -81 65 -131 -17
-138 -195 -169 -258 -45 -23 45 -23 86 2 127 43 70 128 92 191 49z m4437 3
c66 -41 88 -113 54 -179 -63 -124 -241 -93 -258 45 -14 109 111 191 204 134z"/>
<path d="M2355 2971 c-11 -5 -28 -17 -38 -28 -23 -26 -267 -668 -267 -704 0
-35 42 -85 77 -92 51 -10 91 17 119 78 l25 55 119 0 118 0 17 -44 c10 -25 28
-55 42 -68 33 -31 93 -31 127 1 50 47 48 60 -89 422 -75 199 -135 343 -148
356 -25 26 -72 37 -102 24z m59 -438 c9 -26 16 -48 16 -50 0 -2 -18 -3 -40 -3
-22 0 -40 3 -40 7 0 16 33 93 40 93 5 0 15 -21 24 -47z"/>
<path d="M2935 2971 c-11 -5 -29 -19 -40 -31 -19 -21 -20 -36 -20 -381 l0
-359 27 -26 c37 -37 99 -37 136 0 l27 26 0 360 0 360 -25 25 c-28 27 -74 39
-105 26z"/>
<path d="M2268 3741 c-84 -75 3 -205 105 -156 96 45 60 185 -47 185 -14 0 -40
-13 -58 -29z"/>
<path d="M2716 1489 c-56 -66 -13 -159 72 -159 67 0 108 57 90 127 -11 42 -42
63 -94 63 -35 0 -47 -5 -68 -31z"/>
</g>
</svg>
