<?xml version="1.0" standalone="no"?>
<!DOCTYPE svg PUBLIC "-//W3C//DTD SVG 20010904//EN"
 "http://www.w3.org/TR/2001/REC-SVG-20010904/DTD/svg10.dtd">
<svg version="1.0" xmlns="http://www.w3.org/2000/svg"
 width="512.000000pt" height="512.000000pt" viewBox="0 0 512.000000 512.000000"
 preserveAspectRatio="xMidYMid meet">

<g transform="translate(0.000000,512.000000) scale(0.100000,-0.100000)"
fill="#000000" stroke="none">
<path d="M2463 5102 c-72 -26 -128 -67 -163 -120 -35 -53 -60 -129 -60 -182
l0 -36 -107 -33 c-489 -149 -867 -560 -978 -1061 -30 -133 -35 -245 -35 -725
0 -519 -3 -563 -47 -675 -42 -107 -85 -160 -316 -393 -285 -287 -271 -260
-275 -544 l-3 -213 2081 0 2081 0 -3 213 c-4 283 7 260 -259 528 -236 236
-267 273 -307 354 -67 135 -65 116 -73 730 -6 511 -8 568 -27 656 -66 312
-197 554 -417 775 -188 188 -403 316 -631 374 l-41 10 -6 59 c-6 75 -43 157
-92 206 -82 81 -219 114 -322 77z"/>
<path d="M1920 688 c0 -143 19 -230 72 -337 103 -210 332 -351 568 -351 236 0
465 141 568 351 53 107 72 194 72 337 l0 112 -640 0 -640 0 0 -112z"/>
</g>
</svg>
