<?xml version="1.0" standalone="no"?>
<!DOCTYPE svg PUBLIC "-//W3C//DTD SVG 20010904//EN"
 "http://www.w3.org/TR/2001/REC-SVG-20010904/DTD/svg10.dtd">
<svg version="1.0" xmlns="http://www.w3.org/2000/svg"
 width="512.000000pt" height="512.000000pt" viewBox="0 0 512.000000 512.000000"
 preserveAspectRatio="xMidYMid meet">

<g transform="translate(0.000000,512.000000) scale(0.100000,-0.100000)"
fill="#000000" stroke="none">
<path d="M4157 4646 c-85 -32 -153 -99 -183 -183 -9 -26 -13 -90 -14 -200 l0
-161 -172 -4 c-196 -4 -231 -14 -307 -89 -62 -62 -85 -120 -86 -209 0 -91 23
-148 85 -210 74 -74 110 -84 308 -88 l172 -4 0 -167 c0 -167 0 -168 31 -229
34 -69 71 -104 144 -138 56 -27 151 -32 215 -13 66 20 132 78 168 150 33 65
33 65 34 219 1 85 3 161 6 168 3 9 44 12 158 12 183 0 236 15 309 86 65 63 90
121 90 214 0 89 -26 151 -87 211 -75 72 -111 83 -303 89 l-170 5 -2 163 c-2
149 -4 168 -26 216 -29 62 -81 117 -140 148 -53 27 -174 35 -230 14z m158
-162 c66 -31 69 -45 75 -286 4 -191 7 -219 23 -235 15 -16 44 -19 230 -23 236
-6 262 -13 293 -73 35 -66 16 -143 -44 -184 -24 -16 -53 -18 -227 -21 -110 -1
-210 -5 -222 -7 -45 -10 -53 -48 -53 -262 0 -179 -2 -201 -20 -230 -53 -88
-190 -82 -233 10 -14 29 -17 68 -17 227 0 207 -8 245 -53 255 -12 2 -112 6
-222 7 -177 3 -203 5 -228 22 -80 54 -79 178 2 228 34 22 50 23 248 28 186 4
215 7 230 23 16 16 19 44 23 235 6 240 9 254 73 286 41 20 80 20 122 0z"/>
<path d="M1189 3309 c-85 -13 -173 -77 -212 -154 -28 -56 -949 -2270 -963
-2315 -41 -133 25 -285 153 -350 40 -21 62 -25 133 -25 100 0 158 24 219 90
39 42 43 52 280 620 l129 310 313 0 314 0 183 -440 c129 -310 193 -452 218
-481 107 -131 315 -139 437 -17 86 85 87 93 87 549 l0 394 291 -2 291 -3 177
-425 c98 -234 185 -439 194 -456 25 -48 102 -111 159 -130 68 -22 168 -16 228
15 126 64 195 211 160 337 -7 25 -88 226 -180 447 l-168 402 78 77 c43 42 99
108 124 147 203 305 206 698 7 998 -100 151 -223 258 -383 332 -178 84 -274
93 -874 88 -340 -2 -468 -7 -494 -16 -84 -31 -166 -112 -191 -189 -9 -26 -14
-158 -16 -442 l-4 -405 -185 443 c-101 244 -196 461 -210 482 -59 89 -179 137
-295 119z m142 -196 c22 -22 96 -189 293 -661 145 -347 271 -643 279 -656 31
-47 107 -40 134 14 10 19 13 163 13 635 0 587 1 611 20 642 40 66 23 64 618
61 l537 -3 80 -28 c198 -67 350 -199 440 -382 58 -117 77 -203 77 -335 -1
-226 -95 -427 -266 -567 -94 -76 -106 -90 -106 -120 0 -15 84 -228 186 -473
196 -469 206 -500 170 -555 -22 -34 -74 -65 -109 -65 -42 0 -92 24 -114 56
-11 16 -102 227 -203 469 -100 242 -189 452 -196 467 -24 46 -57 50 -452 46
l-364 -3 -24 -28 -24 -28 0 -437 c0 -418 -1 -438 -20 -470 -24 -39 -75 -72
-113 -72 -40 0 -93 25 -111 52 -8 12 -101 230 -206 483 -105 253 -200 469
-211 480 -19 19 -35 20 -392 23 -405 4 -437 0 -461 -46 -7 -15 -98 -229 -201
-477 -103 -247 -194 -458 -203 -469 -82 -91 -236 -34 -235 87 0 32 112 310
467 1162 257 616 475 1136 485 1155 43 84 150 106 212 43z"/>
<path d="M2364 2869 c-42 -21 -44 -42 -44 -475 l0 -415 25 -24 c24 -25 25 -25
230 -25 205 0 206 0 230 25 16 15 25 36 25 55 0 19 -9 40 -25 55 -23 24 -28
25 -175 25 l-150 0 2 313 3 312 330 0 330 0 56 -26 c146 -69 219 -222 175
-370 -34 -119 -126 -198 -259 -222 -93 -18 -117 -36 -117 -88 0 -73 69 -96
193 -64 86 22 150 59 215 123 94 91 142 204 142 332 0 208 -120 378 -318 453
-54 20 -75 21 -452 24 -265 1 -402 -1 -416 -8z"/>
<path d="M1191 2513 c-25 -22 -211 -468 -211 -507 0 -15 10 -37 25 -51 24 -25
24 -25 234 -25 205 0 210 0 237 23 19 17 27 33 26 55 -1 41 -181 471 -209 500
-27 27 -73 29 -102 5z m109 -419 c0 -2 -27 -4 -60 -4 -67 0 -65 -9 -20 95 l21
50 30 -68 c16 -38 29 -71 29 -73z"/>
</g>
</svg>
